<svg width="112" height="112" viewBox="0 0 112 112" fill="none" xmlns="http://www.w3.org/2000/svg">
<g clip-path="url(#clip0_80_50)">
<path opacity="0.939" fill-rule="evenodd" clip-rule="evenodd" d="M13.7437 0.269429C45.4889 0.147146 77.2338 0.0248648 108.979 -0.0974175C109.893 0.679259 110.077 1.61649 109.531 2.71427C107.045 6.46303 104.425 10.1166 101.673 13.6751C99.3098 13.875 98.6205 12.9037 99.6053 10.761C100.844 8.91432 102.136 7.10563 103.48 5.33494C103.624 5.19008 103.624 5.0458 103.479 4.90205C85.7371 10.9643 67.9755 16.985 50.1942 22.9642C60.0995 28.3733 70.0047 33.7823 79.91 39.1915C85.0472 31.8376 90.2136 24.4946 95.4093 17.1624C97.6893 16.6963 98.4503 17.5953 97.6924 19.8592C92.3737 27.5824 87.0282 35.2868 81.6561 42.9725C80.9434 43.382 80.2218 43.3848 79.4917 42.9809C74.6024 40.2506 69.6861 37.564 64.7422 34.9209C57.6529 39.9094 50.6016 44.951 43.5887 50.0455C42.0787 50.6552 41.1029 50.1899 40.6613 48.6499C38.9689 37.4624 37.2304 26.2859 35.4456 15.1207C28.1435 11.2167 20.8415 7.3127 13.5394 3.4087C12.6226 2.26928 12.6907 1.22286 13.7437 0.269429ZM21.7663 3.91812C43.3013 3.58284 64.8734 3.46366 86.4826 3.56061C70.219 6.37313 53.9603 9.21349 37.7066 12.0817C32.3674 9.40573 27.054 6.68453 21.7663 3.91812ZM84.3327 7.35672C84.6298 7.32165 84.9186 7.35662 85.1989 7.4616C71.7966 11.9865 58.3944 16.5113 44.9921 21.0362C44.366 21.3907 44.0434 21.9331 44.0243 22.6633C43.4638 26.9944 42.9034 31.3255 42.3428 35.6566C41.1402 28.9048 40.068 22.127 39.126 15.3229C54.2415 12.7728 69.3103 10.1174 84.3327 7.35672ZM47.1736 25.4649C51.8581 27.8568 56.4852 30.3643 61.0552 32.9871C55.7056 36.9542 50.3095 40.871 44.8669 44.7376C45.528 38.3425 46.2967 31.9182 47.1736 25.4649Z" fill="white"/>
<path opacity="0.879" fill-rule="evenodd" clip-rule="evenodd" d="M41.6486 52.1094C43.9935 52.1395 44.6469 53.1831 43.6087 55.2403C42.7611 55.5626 41.8963 55.8185 41.0143 56.0079C39.5461 55.5334 39.1457 54.5971 39.813 53.1987C40.3572 52.6929 40.9692 52.3299 41.6486 52.1094Z" fill="white"/>
<path opacity="0.885" fill-rule="evenodd" clip-rule="evenodd" d="M35.813 54.2963C37.8761 54.2323 38.565 55.1675 37.88 57.1022C36.9983 57.674 36.0987 58.2186 35.1807 58.7359C32.875 59.1444 32.114 58.2456 32.8977 56.0391C33.8652 55.4253 34.837 54.8442 35.813 54.2963Z" fill="white"/>
<path opacity="0.89" fill-rule="evenodd" clip-rule="evenodd" d="M29.984 58.2146C31.6682 58.6164 32.1412 59.6247 31.4026 61.2394C30.5756 61.9281 29.7484 62.6166 28.9214 63.3052C26.9626 63.5892 26.2018 62.7625 26.6392 60.8249C27.5573 59.6393 28.6721 58.7692 29.984 58.2146Z" fill="white"/>
<path opacity="0.883" fill-rule="evenodd" clip-rule="evenodd" d="M24.3773 63.6474C25.8852 63.7414 26.5738 64.5325 26.4427 66.0204C25.791 67.5463 24.713 68.6326 23.2086 69.2796C21.8809 69.0122 21.3728 68.2204 21.6843 66.9045C22.3324 65.5674 23.2301 64.4817 24.3773 63.6474Z" fill="white"/>
<path opacity="0.884" fill-rule="evenodd" clip-rule="evenodd" d="M28.9285 65.145C31.1292 64.7075 32.1065 65.5696 31.8605 67.7311C31.6089 67.9847 31.3575 68.238 31.1059 68.4916C30.4009 68.5402 29.716 68.651 29.0509 68.8241C27.4837 68.4614 26.9752 67.5252 27.525 66.0162C27.9111 65.5541 28.3788 65.2638 28.9285 65.145Z" fill="white"/>
<path opacity="0.894" fill-rule="evenodd" clip-rule="evenodd" d="M34.7741 65.5554C36.1051 65.7386 37.4051 66.0583 38.6739 66.5144C39.6778 67.3036 39.7895 68.2051 39.009 69.2187C38.6337 69.5219 38.2014 69.6679 37.712 69.6566C36.478 69.4884 35.2863 69.1683 34.1369 68.6964C33.3926 67.4181 33.605 66.3709 34.7741 65.5554Z" fill="white"/>
<path opacity="0.899" fill-rule="evenodd" clip-rule="evenodd" d="M41.2791 68.5607C41.9322 68.5225 42.5817 68.5561 43.2275 68.6614C44.1247 69.3357 44.9573 70.09 45.7254 70.9245C46.138 72.6802 45.4557 73.5125 43.6788 73.4215C42.7131 72.8229 41.8087 72.1409 40.9653 71.3757C40.4729 70.3614 40.5775 69.4231 41.2791 68.5607Z" fill="white"/>
<path opacity="0.88" fill-rule="evenodd" clip-rule="evenodd" d="M16.1734 69.0902C17.9448 69.0914 18.6335 69.9545 18.2396 71.6796C17.3449 72.909 16.1562 73.3824 14.6737 73.1002C13.5154 72.0945 13.5115 71.0846 14.662 70.07C15.1798 69.7382 15.6836 69.4116 16.1734 69.0902Z" fill="white"/>
<path opacity="0.891" fill-rule="evenodd" clip-rule="evenodd" d="M20.5064 70.1557C21.7268 70.1112 22.4506 70.6856 22.6775 71.8789C22.3504 73.0553 21.9581 74.2111 21.5004 75.3466C20.7557 76.057 19.9264 76.1684 19.0125 75.6809C18.5903 75.3098 18.372 74.8416 18.3578 74.2765C18.5988 73.0695 18.9912 71.9135 19.5349 70.8088C19.8387 70.5303 20.1625 70.3126 20.5064 70.1557Z" fill="white"/>
<path opacity="0.897" fill-rule="evenodd" clip-rule="evenodd" d="M10.9937 73.0062C13.0232 72.815 13.784 73.6779 13.2763 75.5947C12.3871 76.6741 11.3443 77.5439 10.1479 78.2041C8.67474 77.9362 8.1303 77.0725 8.51458 75.6131C9.23882 74.63 10.0652 73.761 10.9937 73.0062Z" fill="white"/>
<path opacity="0.894" fill-rule="evenodd" clip-rule="evenodd" d="M46.0634 74.3862C47.0267 74.1914 47.7854 74.477 48.3394 75.2432C48.6761 76.2778 48.9327 77.3229 49.109 78.3787C48.9107 79.9258 48.0471 80.5064 46.5184 80.1203C46.193 79.9412 45.9395 79.6896 45.7579 79.3657C45.5108 78.2095 45.254 77.0559 44.987 75.9055C45.1936 75.262 45.5525 74.7557 46.0634 74.3862Z" fill="white"/>
<path opacity="0.895" fill-rule="evenodd" clip-rule="evenodd" d="M19.2361 77.5198C20.6159 77.5597 21.3041 78.2785 21.3006 79.6763C21.4488 80.6859 21.4527 81.6958 21.3123 82.7065C20.3066 83.8647 19.2966 83.8686 18.2821 82.7182C18.0409 81.6486 17.8563 80.5671 17.7285 79.4736C17.8421 78.4933 18.3446 77.8421 19.2361 77.5198Z" fill="white"/>
<path opacity="0.888" fill-rule="evenodd" clip-rule="evenodd" d="M6.47004 78.6513C8.34235 78.5329 9.10323 79.3957 8.7527 81.2399C8.26924 82.1439 7.73147 83.0118 7.13938 83.8435C4.75827 84.5349 3.92522 83.6723 4.64027 81.2558C5.09763 80.2514 5.70754 79.3833 6.47004 78.6513Z" fill="white"/>
<path opacity="0.89" fill-rule="evenodd" clip-rule="evenodd" d="M46.3082 81.7445C47.8936 81.7717 48.5821 82.5627 48.3736 84.1174C48.0766 85.0805 47.7194 86.0197 47.3022 86.9354C46.2164 87.8657 45.206 87.7975 44.2712 86.7306C44.1337 84.6956 44.8127 83.0335 46.3082 81.7445Z" fill="white"/>
<path opacity="0.89" fill-rule="evenodd" clip-rule="evenodd" d="M20.7795 84.8731C21.3896 84.8162 21.9672 84.9222 22.5123 85.1911C23.4763 86.2057 24.1303 87.3937 24.474 88.7549C24.4008 89.8084 23.8258 90.3879 22.7491 90.4931C21.1172 89.7005 20.1022 88.4057 19.7039 86.6088C19.7382 85.8093 20.0967 85.2309 20.7795 84.8731Z" fill="white"/>
<path opacity="0.895" fill-rule="evenodd" clip-rule="evenodd" d="M3.89771 85.1545C5.18625 85.1775 5.83808 85.8243 5.85321 87.095C5.67305 88.1208 5.42444 89.1317 5.10733 90.1281C4.37055 91.0515 3.46939 91.2355 2.40387 90.6797C2.0636 90.3165 1.84549 89.8844 1.74953 89.3835C2.0199 88.247 2.34026 87.1276 2.71061 86.0249C3.03359 85.5974 3.42928 85.3074 3.89771 85.1545Z" fill="white"/>
<path opacity="0.881" fill-rule="evenodd" clip-rule="evenodd" d="M42.2208 88.2538C43.9859 88.1005 44.7466 88.8912 44.5026 90.6259C43.5126 92.2117 42.1089 93.047 40.2915 93.1313C38.9356 92.1595 38.8594 91.0775 40.0626 89.8855C40.7603 89.288 41.4798 88.7441 42.2208 88.2538Z" fill="white"/>
<path opacity="0.893" fill-rule="evenodd" clip-rule="evenodd" d="M25.995 90.2642C27.4563 90.5551 28.8293 91.091 30.1137 91.8717C30.9674 93.8574 30.3217 94.7979 28.1765 94.693C26.968 94.3297 25.9196 93.7205 25.031 92.8653C24.6605 91.7046 24.9819 90.8376 25.995 90.2642Z" fill="white"/>
<path opacity="0.901" fill-rule="evenodd" clip-rule="evenodd" d="M35.0915 91.7444C37.1919 91.4216 38.0972 92.2839 37.807 94.3313C37.5455 94.6676 37.2218 94.9212 36.8359 95.0926C35.5488 95.3854 34.2504 95.4625 32.9408 95.324C31.7847 94.3082 31.7808 93.2982 32.9291 92.2938C33.6755 92.0994 34.3965 91.9163 35.0915 91.7444Z" fill="white"/>
<path opacity="0.898" fill-rule="evenodd" clip-rule="evenodd" d="M1.97808 92.5212C2.99945 92.3123 3.83025 92.5976 4.47052 93.3774C4.61955 94.6034 4.62427 95.8298 4.48469 97.0569C3.47532 98.6547 2.39339 98.731 1.23887 97.2859C1.08985 96.0599 1.08513 94.8335 1.2247 93.6063C1.43903 93.2109 1.69016 92.8492 1.97808 92.5212Z" fill="white"/>
<path opacity="0.878" fill-rule="evenodd" clip-rule="evenodd" d="M2.87138 99.6605C4.15807 99.5356 4.91784 100.11 5.15071 101.383C5.60424 102.532 5.68083 103.686 5.38049 104.846C3.82068 105.949 2.73707 105.593 2.12967 103.776C1.62067 102.635 1.54407 101.481 1.89989 100.314C2.20373 100.035 2.52756 99.8175 2.87138 99.6605Z" fill="white"/>
<path opacity="0.892" fill-rule="evenodd" clip-rule="evenodd" d="M7.028 111.116C6.52297 111.118 6.01792 111.12 5.5129 111.122C4.17507 110.118 3.77324 108.821 4.30745 107.231C4.9784 106.53 5.73553 106.419 6.57886 106.897C7.56576 107.812 7.96688 108.929 7.78222 110.248C7.63448 110.649 7.38307 110.938 7.028 111.116Z" fill="white"/>
</g>
<defs>
<clipPath id="clip0_80_50">
<rect width="110.82" height="110.82" fill="white" transform="translate(0 0.430664) rotate(-0.220702)"/>
</clipPath>
</defs>
</svg>
