<svg width="202" height="76" viewBox="0 0 202 76" fill="none" xmlns="http://www.w3.org/2000/svg">
<circle cx="31" cy="38" r="31" fill="#FF7300"/>
<path d="M39.764 53V25.262H30.288V20.8H54.714V25.262H45.238V53H39.764Z" fill="white"/>
<path d="M56.789 53V29.816H61.711L62.217 34.14C62.769 33.128 63.459 32.2693 64.287 31.564C65.115 30.828 66.081 30.2607 67.185 29.862C68.3197 29.4633 69.5617 29.264 70.911 29.264V35.106H68.979C68.059 35.106 67.185 35.2287 66.357 35.474C65.529 35.6887 64.8084 36.0567 64.195 36.578C63.6124 37.0687 63.1524 37.7587 62.815 38.648C62.4777 39.5067 62.309 40.5953 62.309 41.914V53H56.789ZM81.4202 53L72.8642 29.816H78.6602L84.7782 47.756L90.8962 29.816H96.6002L88.0442 53H81.4202ZM110.276 53.552C107.976 53.552 105.952 53.0613 104.204 52.08C102.456 51.068 101.091 49.6573 100.11 47.848C99.1286 46.0387 98.6379 43.9533 98.6379 41.592C98.6379 39.1387 99.1132 36.992 100.064 35.152C101.045 33.312 102.41 31.8707 104.158 30.828C105.937 29.7853 107.991 29.264 110.322 29.264C112.591 29.264 114.569 29.77 116.256 30.782C117.943 31.794 119.246 33.1587 120.166 34.876C121.086 36.5627 121.546 38.464 121.546 40.58C121.546 40.8867 121.546 41.224 121.546 41.592C121.546 41.96 121.515 42.3433 121.454 42.742H102.594V39.2H115.98C115.919 37.5133 115.351 36.1947 114.278 35.244C113.205 34.2627 111.871 33.772 110.276 33.772C109.141 33.772 108.099 34.0327 107.148 34.554C106.197 35.0753 105.446 35.8573 104.894 36.9C104.342 37.912 104.066 39.2 104.066 40.764V42.098C104.066 43.5393 104.327 44.7813 104.848 45.824C105.4 46.8667 106.136 47.664 107.056 48.216C108.007 48.7373 109.065 48.998 110.23 48.998C111.518 48.998 112.576 48.722 113.404 48.17C114.263 47.618 114.891 46.882 115.29 45.962H120.902C120.473 47.4033 119.767 48.7067 118.786 49.872C117.805 51.0067 116.593 51.9113 115.152 52.586C113.711 53.23 112.085 53.552 110.276 53.552ZM126.643 53V19.88H132.163V53H126.643ZM149.132 53.552C146.924 53.552 144.931 53.046 143.152 52.034C141.404 50.9913 140.024 49.5653 139.012 47.756C138.031 45.916 137.54 43.8153 137.54 41.454C137.54 39.0313 138.046 36.9153 139.058 35.106C140.07 33.266 141.45 31.84 143.198 30.828C144.977 29.7853 146.97 29.264 149.178 29.264C151.386 29.264 153.364 29.7853 155.112 30.828C156.891 31.84 158.271 33.2507 159.252 35.06C160.264 36.8693 160.77 38.9853 160.77 41.408C160.77 43.8307 160.264 45.9467 159.252 47.756C158.24 49.5653 156.845 50.9913 155.066 52.034C153.318 53.046 151.34 53.552 149.132 53.552ZM149.132 48.814C150.236 48.814 151.233 48.538 152.122 47.986C153.042 47.434 153.778 46.606 154.33 45.502C154.882 44.398 155.158 43.0333 155.158 41.408C155.158 39.7827 154.882 38.4333 154.33 37.36C153.809 36.256 153.088 35.428 152.168 34.876C151.279 34.324 150.282 34.048 149.178 34.048C148.105 34.048 147.108 34.324 146.188 34.876C145.268 35.428 144.532 36.256 143.98 37.36C143.428 38.4333 143.152 39.7827 143.152 41.408C143.152 43.0333 143.428 44.398 143.98 45.502C144.532 46.606 145.253 47.434 146.142 47.986C147.062 48.538 148.059 48.814 149.132 48.814Z" fill="#222222"/>
</svg>
