<svg width="89" height="89" viewBox="0 0 89 89" fill="none" xmlns="http://www.w3.org/2000/svg">
<path d="M75.3126 65.6672C82.3102 58.0725 81.6056 48.3196 81.5834 48.2083V18.5416C81.5834 17.5581 81.1926 16.6149 80.4972 15.9195C79.8018 15.224 78.8585 14.8333 77.875 14.8333H55.625C51.5347 14.8333 48.2083 18.1597 48.2083 22.25V48.2083C48.2083 49.1918 48.599 50.1351 49.2945 50.8305C49.9899 51.526 50.9332 51.9167 51.9167 51.9167H63.3309C63.2526 53.75 62.7048 55.5326 61.74 57.0935C59.8562 60.0639 56.3073 62.0923 51.1861 63.1158L48.2083 63.7092V74.1667H51.9167C62.237 74.1667 70.1098 71.3076 75.3126 65.6672ZM34.4949 65.6672C41.4962 58.0725 40.788 48.3196 40.7657 48.2083V18.5416C40.7657 17.5581 40.375 16.6149 39.6796 15.9195C38.9841 15.224 38.0409 14.8333 37.0574 14.8333H14.8074C10.7171 14.8333 7.39069 18.1597 7.39069 22.25V48.2083C7.39069 49.1918 7.78138 50.1351 8.47683 50.8305C9.17228 51.526 10.1155 51.9167 11.099 51.9167H22.5133C22.4349 53.75 21.8871 55.5326 20.9224 57.0935C19.0386 60.0639 15.4897 62.0923 10.3685 63.1158L7.39069 63.7092V74.1667H11.099C21.4193 74.1667 29.2921 71.3076 34.4949 65.6672Z" fill="#63AB45"/>
</svg>
